<?xml version="1.0" encoding="utf-8"?>
<!-- Generator: Adobe Illustrator 25.0.0, SVG Export Plug-In . SVG Version: 6.00 Build 0)  -->
<svg version="1.1" id="Capa_1" xmlns="http://www.w3.org/2000/svg" xmlns:xlink="http://www.w3.org/1999/xlink" x="0px" y="0px"
	 viewBox="0 0 512 512" style="enable-background:new 0 0 512 512;" xml:space="preserve">
<g>
	<path d="M122.42,266.3c0.89,0.18,1.54,1.12,1.54,2.84c0,2.07-2.55,5.27-4.91,6.45c-1.12,0.53-2.19,0.77-3.32,0.77
		c-3.32,0-6.45-2.19-8.05-5.27c-1.18-2.37-2.31-8.17-3.32-14.39h-0.65c-2.78,0-5.45,0.06-7.93,0.3c-0.83,3.91-1.89,8.11-3.02,11.84
		c-1.01,3.26-2.07,6.16-3.14,8.17c-0.59,1.12-1.72,2.9-3.26,2.9c-1.66,0-3.02-1.07-4.14-2.84c-1.72-2.72-2.72-7.1-2.72-11.07
		c0-2.61,0.41-5.21,1.36-6.93c1.78-3.37,5.45-4.68,10.6-5.39l2.01-7.87c1.84-6.93,2.9-12.85,6.16-14.56
		c1.12-0.59,2.49-0.89,3.91-0.89c2.07,0,4.2,0.65,5.74,1.89c0.47,1.36,2.66,19.48,2.9,20.84c2.6,0.12,5.62,0.12,6.81,0.18
		c0,0,0.06,0.18,0.06,0.47c0,0.77-0.24,2.19-1.78,2.84c-0.59,0.3-1.48,0.36-2.37,0.36c-0.53,0-1.24-0.06-2.19-0.06
		c0.95,6.99,1.36,11.01,2.66,13.62c0.47,1.01,1.12,1.36,1.84,1.36c1.18,0,2.55-1.12,3.37-2.13
		C122.3,267.61,122.42,266.3,122.42,266.3z M90.39,257.78c-2.13,0.47-3.91,1.24-5.03,2.19c-1.36,1.36-2.07,4.8-2.07,7.76
		c0,2.72,0.59,4.91,1.66,4.91c0.24,0,0.53-0.12,0.83-0.36C86.66,271.63,88.43,265.36,90.39,257.78z M103.83,253.16
		c-1.18-8.64-1.89-15.45-2.07-16.99c-0.95,0-1.89,3.55-3.38,9.12c-1.01,3.79-1.83,8.05-1.83,8.05
		C98.79,253.22,101.22,253.22,103.83,253.16z"/>
	<path d="M131.24,243.81c0.41,0,2.07,0.18,3.32,0.53c0.83,0.24,1.42,0.71,1.42,1.18c0,0.77-1.42,0.95-2.01,1.72
		c-0.47,0.59-0.77,1.54-0.77,2.37c0,0.53,0.12,1.07,0.41,1.6c1.07,1.95,2.37,4.44,2.37,4.44c1.78,3.55,3.73,6.87,3.73,11.19
		c0,1.66-0.47,3.85-1.95,6.69c1.3-0.77,2.19-1.24,3.91-2.6c1.6-1.3,2.55-2.78,3.2-4.5c0.65,0.24,1.66,0.71,1.66,2.37
		c0,2.13-1.24,3.67-2.78,4.91c-2.96,2.37-7.52,3.73-10.48,3.73c-4.85,0-11.6-1.42-14.03-6.28c-0.41-0.83-0.59-1.78-0.59-2.72
		c0-1.6,0.53-3.14,2.19-3.73c0.06,0.12,0.18,0.3,0.36,0.47c0.83-1.83,1.72-4.03,2.49-6.51c0.83-2.6,1.6-5.39,2.13-8.05
		c-0.18-0.77-0.3-1.54-0.3-2.25c0-0.59,0.06-1.12,0.24-1.66C126.45,244.69,128.7,243.81,131.24,243.81z M123.43,269.32
		c0.3,1.24,4.2,3.79,6.75,3.79c0.41,0,0.77-0.06,1.12-0.24c1.01-0.53,1.36-1.72,1.36-3.14c0-2.55-1.12-5.92-1.83-7.7
		c-0.77-1.95-1.66-3.85-2.66-5.68c-0.53,1.89-1.12,3.85-1.78,5.74C125.44,264.82,123.96,267.61,123.43,269.32z"/>
	<path d="M154.16,243.81c0.41,0,2.07,0.18,3.32,0.53c0.83,0.24,1.42,0.71,1.42,1.18c0,0.77-1.42,0.95-2.01,1.72
		c-0.47,0.59-0.77,1.54-0.77,2.37c0,0.53,0.12,1.07,0.41,1.6c1.07,1.95,2.37,4.44,2.37,4.44c1.78,3.55,3.73,6.87,3.73,11.19
		c0,1.66-0.47,3.85-1.95,6.69c1.3-0.77,2.19-1.24,3.91-2.6c1.6-1.3,2.55-2.78,3.2-4.5c0.65,0.24,1.66,0.71,1.66,2.37
		c0,2.13-1.24,3.67-2.78,4.91c-2.96,2.37-7.52,3.73-10.48,3.73c-4.85,0-11.6-1.42-14.03-6.28c-0.41-0.83-0.59-1.78-0.59-2.72
		c0-1.6,0.53-3.14,2.19-3.73c0.06,0.12,0.18,0.3,0.35,0.47c0.83-1.83,1.72-4.03,2.49-6.51c0.83-2.6,1.6-5.39,2.13-8.05
		c-0.18-0.77-0.3-1.54-0.3-2.25c0-0.59,0.06-1.12,0.24-1.66C149.36,244.69,151.61,243.81,154.16,243.81z M146.34,269.32
		c0.3,1.24,4.2,3.79,6.75,3.79c0.41,0,0.77-0.06,1.12-0.24c1.01-0.53,1.36-1.72,1.36-3.14c0-2.55-1.12-5.92-1.84-7.7
		c-0.77-1.95-1.66-3.85-2.66-5.68c-0.53,1.89-1.12,3.85-1.78,5.74C148.35,264.82,146.87,267.61,146.34,269.32z"/>
	<path d="M172.81,260.86c0,3.79,0.71,7.46,2.72,9.53c1.36,1.48,2.96,2.13,4.5,2.13c2.01,0,4.08-1.01,5.74-2.66
		c1.66-1.66,2.9-3.97,3.32-6.45c1.12,0,1.95,1.18,1.95,2.72c0,0.24,0,0.47-0.06,0.71c-0.41,2.31-1.6,4.32-3.32,5.92
		c-2.43,2.25-5.74,3.61-9.29,3.61c-3.49,0-7.34-1.18-10.01-4.56c-2.13-2.66-3.08-6.63-3.08-10.72c0-4.14,1.01-8.41,3.14-11.49
		c2.13-3.14,5.21-4.38,8.17-4.38c3.55,0,6.99,1.78,8.05,4.14c0.47,0.95,0.65,1.89,0.65,2.84c0,2.13-1.12,4.08-3.2,5.74
		C179.56,259.97,176,260.86,172.81,260.86z M172.93,258.07c1.48-0.3,2.84-0.77,4.32-1.72c1.78-1.24,2.72-3.37,2.72-4.97
		c0-1.66-1.07-3.2-2.31-3.2C175.35,248.19,173.46,253.34,172.93,258.07z"/>
	<path d="M225.98,276.55c-2.84,0-5.98-2.31-6.87-5.68c-0.47-1.83-0.65-3.67-0.65-5.62c0-2.9,0.36-5.8,0.36-9c0-0.47,0-1.78-0.3-2.9
		c-0.24-0.89-0.59-1.6-1.24-1.6c-0.41,0-1.01,0.59-1.6,1.66c-1.12,1.95-2.43,5.27-3.55,8.82c-1.66,5.15-3.02,10.66-3.02,12.73v0.36
		c-0.59,0.18-1.24,0.3-1.95,0.3c-1.89,0-3.91-0.83-4.44-2.84c-0.12-0.53-0.18-1.12-0.18-1.83c0-2.07,0.41-4.91,0.53-8.35
		c0.06-1.3,0.06-2.72,0.06-4.03c0-3.61-0.24-6.69-1.48-6.69c-1.24,0-3.32,5.15-5.03,10.77c-1.54,5.09-2.78,10.54-2.78,12.91
		c-0.3,0.12-0.59,0.18-1.01,0.18c-2.07,0-5.39-1.66-5.56-3.91c-0.06-0.83-0.12-2.01-0.12-3.38c0-2.66,0.12-5.98,0.3-8.53
		c0.18-3.26,0.47-5.68,0.47-8.17c0-1.24-0.06-2.49-0.3-3.85c0.36-0.12,0.77-0.18,1.18-0.18c1.72,0,3.79,0.89,4.62,2.66
		c0.35,0.77,0.65,2.43,0.65,4.68c0,0.53,0,1.12-0.41,7.99c0.18-0.83,1.42-5.92,3.02-10c1.01-2.6,2.19-5.86,5.68-5.86
		c2.61,0,5.15,1.95,6.1,4.26c0.83,2.01,1.01,4.26,1.01,6.45c0,1.3-0.06,2.55-0.12,4.32c1.01-4.03,2.25-6.87,3.37-9.83
		c1.01-2.72,2.84-5.27,5.51-5.27c2.49,0,5.74,1.36,6.93,5.27c0.3,1.12,0.41,2.31,0.41,3.61c0,1.78-0.18,3.67-0.3,5.62
		c-0.06,1.18-0.3,3.73-0.3,6.04c0,2.19,0.18,4.2,1.01,4.74c0.3,0.24,0.59,0.3,0.95,0.3c0.89,0,1.78-0.71,2.6-1.72
		c1.24-1.54,2.31-3.67,2.61-4.74c0.65,0.12,1.48,0.95,1.48,2.43c0,0.41-0.06,0.83-0.18,1.3c-0.83,2.9-3.91,5.74-6.16,6.39
		C226.86,276.49,226.45,276.55,225.98,276.55z"/>
	<path d="M237.47,246.23c0.95-0.41,1.89-0.65,2.96-0.65c1.89,0,3.91,0.65,5.56,1.78c1.95,1.3,3.61,3.26,4.68,5.86
		c0.41,1.07,0.83,3.55,0.83,6.33c1.48-0.36,2.66-0.83,3.49-1.48c1.18-0.89,1.84-1.95,2.31-3.02c0.59,0.35,1.54,1.24,1.54,2.66
		c0,0.53-0.12,1.18-0.53,1.89c-1.3,2.37-4.03,3.79-7.28,4.32c-0.65,4.56-2.01,8.29-5.09,10.89c-1.36,1.12-3.55,1.54-5.68,1.54
		c-3.14,0-6.93-1.83-9.18-5.68c-1.6-2.72-2.07-7.46-2.07-12.61c0-8.52,1.48-18.53,2.78-26.76c0.47-0.3,1.18-0.47,1.84-0.47
		c2.07,0,4.32,1.6,4.32,5.57C237.94,239.01,237.82,242.44,237.47,246.23z M239.18,262.04c-1.42-0.77-2.54-1.78-3.43-2.9
		c-0.06,0.59-0.06,1.3-0.06,1.95c0,3.14,0.71,5.92,1.66,7.93c1.01,2.07,2.31,3.32,3.43,3.32c0.18,0,1.12-0.06,2.01-1.78
		c0.65-1.24,1.36-3.38,1.95-6.63C243.33,263.82,240.54,262.81,239.18,262.04z M245.28,259.61c0.06-0.71,0.18-1.66,0.18-2.72
		c0-1.95-0.3-4.26-1.24-5.56c-0.71-0.95-1.84-1.42-2.9-1.42c-1.48,0-3.2,0.89-3.2,3.14C238.12,255.88,241.02,258.67,245.28,259.61z"
		/>
	<path d="M253.99,245.4c0-4.97,0.24-9.77,0.89-12.26c0.53-2.25,1.89-3.26,3.49-3.26c1.89,0,3.43,0.83,4.62,2.07
		c2.13,2.31,3.14,6.1,3.14,9.24c0,5.92-2.01,11.9-4.32,18.29v1.48c0,5.62,0.35,10.24,2.43,11.49c0.3,0.18,0.59,0.24,0.89,0.24
		c0.95,0,1.89-0.77,2.72-1.78c1.12-1.36,1.95-3.2,2.19-4.5c0.65,0.12,1.6,1.18,1.6,2.84c0,1.01-0.3,1.66-0.71,2.37
		c-1.12,1.89-3.26,3.85-4.62,4.38c-0.95,0.36-1.89,0.53-2.84,0.53c-2.25,0-4.38-0.95-5.92-3.02c-1.78-2.43-2.37-7.76-3.02-14.56
		C254.16,255.17,253.99,250.08,253.99,245.4z M262.57,242.09c0-2.13-0.42-3.91-1.6-3.91c-1.12,0-1.3,2.31-1.3,5.33
		c0,3.97,0.24,7.4,0.65,10.24C260.32,253.75,262.57,246.29,262.57,242.09z"/>
	<path d="M275.6,260.86c0,3.79,0.71,7.46,2.72,9.53c1.36,1.48,2.96,2.13,4.5,2.13c2.01,0,4.08-1.01,5.74-2.66
		c1.66-1.66,2.9-3.97,3.32-6.45c1.12,0,1.95,1.18,1.95,2.72c0,0.24,0,0.47-0.06,0.71c-0.42,2.31-1.6,4.32-3.32,5.92
		c-2.43,2.25-5.74,3.61-9.3,3.61c-3.49,0-7.34-1.18-10-4.56c-2.13-2.66-3.08-6.63-3.08-10.72c0-4.14,1.01-8.41,3.14-11.49
		c2.13-3.14,5.21-4.38,8.17-4.38c3.55,0,6.99,1.78,8.05,4.14c0.47,0.95,0.65,1.89,0.65,2.84c0,2.13-1.12,4.08-3.2,5.74
		C282.35,259.97,278.8,260.86,275.6,260.86z M275.72,258.07c1.48-0.3,2.84-0.77,4.32-1.72c1.78-1.24,2.72-3.37,2.72-4.97
		c0-1.66-1.07-3.2-2.31-3.2C278.14,248.19,276.25,253.34,275.72,258.07z"/>
	<path d="M297.27,275.83c-0.41,0.24-0.89,0.3-1.36,0.3c-1.89,0-3.91-1.6-4.5-3.2c-0.71-1.78-0.95-5.86-0.95-10.18
		c0-2.43,0.06-5.68,0.12-7.99c0.06-1.89,0.12-3.61,0.12-4.97c0-1.24-0.12-2.19-0.24-2.84c0.42-0.12,0.83-0.18,1.24-0.18
		c1.72,0,3.26,1.07,4.2,2.6c1.18,1.78,1.3,4.2,1.3,6.69v2.31c0.53-1.78,1.18-3.43,1.78-4.56c-0.06-0.41-0.12-0.89-0.12-1.3
		c0-0.59,0.06-1.36,0.24-2.13c0.41-1.72,1.07-3.02,1.95-3.73c0.36-0.3,0.77-0.41,1.24-0.41c1.89,0,4.44,2.01,4.44,4.38
		c0,1.6-2.43,4.38-2.43,4.38s1.07,3.08,3.91,3.67c0.18,0.06,0.41,0.06,0.59,0.06c1.89,0,3.67-1.66,4.14-3.55
		c1.01,0.12,1.66,1.01,1.66,2.43c0,3.02-2.78,4.85-6.16,4.85c-3.32,0-6.22-1.6-7.81-4.03c-0.77,1.24-1.54,2.9-2.19,4.62
		c-0.83,2.13-1.42,4.44-1.42,5.98C297.03,271.45,297.09,273.53,297.27,275.83z"/>
	<path d="M326.75,269.44c0-2.84,0.59-6.57,0.59-7.7c-1.48,4.5-3.26,9.47-5.45,12.2c-0.95,1.18-2.19,2.19-3.91,2.19
		c-1.3,0-2.6-0.53-3.85-1.6c-1.48-1.3-2.78-3.32-3.67-6.16c-0.59-2.01-0.95-4.2-0.95-6.39c0-3.91,1.01-7.76,2.84-10.77
		c1.95-3.08,4.91-5.21,8.53-5.21c2.01,0,4.91,1.24,6.39,3.97c0.18-0.65,0.3-1.36,0.36-1.95c0.06-0.3,0.59-0.41,1.24-0.41
		c1.72,0,4.32,1.01,5.21,2.55c0.18,0.36,0.24,0.65,0.24,1.07c-0.36,2.43-0.12,4.26-0.36,8.47c-0.18,3.26-0.47,11.01-0.47,11.72
		c1.24-0.89,2.43-1.78,3.43-2.61c1.18-0.95,2.13-1.95,2.78-2.84c0.65,0.36,1.48,1.18,1.48,2.43c0,0.59-0.3,1.42-0.89,2.25
		c-1.48,2.01-4.2,3.85-7.22,5.45c-0.41,3.32-1.36,6.81-3.32,9.12c-1.89,2.25-5.39,3.32-8.53,3.32c-2.13,0-6.93-0.65-6.93-3.91
		c0-0.65,0.24-1.3,0.59-1.95c1.24-1.95,4.26-3.43,6.99-4.74c1.84-0.89,4.74-2.43,4.74-2.43
		C326.64,274.36,326.75,272.52,326.75,269.44z M323.44,264.53c1.36-3.02,2.37-6.63,3.32-10.06c-0.36-2.6-2.19-4.68-3.97-4.68
		c-2.61,0-4.74,6.28-5.33,11.13c-0.18,1.54-0.24,2.9-0.24,4.08c0,4.08,0.89,6.04,2.07,6.04
		C320.42,271.04,321.84,267.96,323.44,264.53z M326.34,279.39c-0.89,0.36-4.5,2.07-5.45,2.78c-0.36,0.24-1.07,0.77-1.07,1.24
		c0,0.65,0.95,1.07,2.07,1.07s2.49-0.47,3.2-1.66C325.69,281.76,326.04,280.63,326.34,279.39z"/>
	<path d="M345.11,275.83c-0.41,0.24-0.89,0.3-1.36,0.3c-1.89,0-3.91-1.6-4.5-3.2c-0.71-1.78-0.95-5.86-0.95-10.18
		c0-2.43,0.06-5.68,0.12-7.99c0.06-1.89,0.12-3.61,0.12-4.97c0-1.24-0.12-2.19-0.24-2.84c0.42-0.12,0.83-0.18,1.24-0.18
		c1.72,0,3.26,1.07,4.2,2.6c1.18,1.78,1.3,4.2,1.3,6.69v2.31c0.53-1.78,1.18-3.43,1.78-4.56c-0.06-0.41-0.12-0.89-0.12-1.3
		c0-0.59,0.06-1.36,0.24-2.13c0.42-1.72,1.07-3.02,1.95-3.73c0.36-0.3,0.77-0.41,1.24-0.41c1.89,0,4.44,2.01,4.44,4.38
		c0,1.6-2.43,4.38-2.43,4.38s1.07,3.08,3.91,3.67c0.18,0.06,0.41,0.06,0.59,0.06c1.89,0,3.67-1.66,4.14-3.55
		c1.01,0.12,1.66,1.01,1.66,2.43c0,3.02-2.78,4.85-6.16,4.85c-3.32,0-6.22-1.6-7.81-4.03c-0.77,1.24-1.54,2.9-2.19,4.62
		c-0.83,2.13-1.42,4.44-1.42,5.98C344.88,271.45,344.93,273.53,345.11,275.83z"/>
	<path d="M382.95,272.64c2.13,0,4.56-4.2,5.09-6.22c0.65,0.18,1.48,0.95,1.48,2.49c0,0.42-0.06,0.83-0.18,1.3
		c-1.01,2.96-3.97,6.16-7.64,6.16c-1.42,0-3.43-0.77-4.68-1.72c-0.95-0.71-1.72-1.66-1.95-2.66c-0.53-2.37-0.71-3.85-0.71-5.33
		c0-0.77,0.06-1.54,0.12-2.49c0-0.24,0.06-0.47,0.06-0.71c-0.83,2.84-3.67,11.19-7.4,12.49c-0.53,0.18-1.07,0.24-1.54,0.24
		c-2.01,0-3.97-1.36-5.39-3.61c-1.6-2.49-2.67-6.1-2.78-9.89v-0.65c0-6.04,2.43-13.32,7.34-15.27c1.01-0.41,2.07-0.59,3.14-0.59
		c2.9,0,5.74,1.42,7.52,3.97c0.12-0.65,0.18-1.24,0.24-2.13c0.06-0.59,0.47-0.89,1.12-0.89c1.83,0,5.15,2.13,5.21,4.74
		c0,0.59-0.12,2.07-0.3,3.85c-0.36,3.37-0.77,7.93-0.77,11.37c0,2.78,0.3,4.91,1.18,5.33C382.41,272.52,382.65,272.64,382.95,272.64
		z M369.74,267.96c1.89-3.26,3.79-8.7,4.85-13.5c-0.18-1.89-1.72-4.56-3.67-4.56c-0.65,0-1.36,0.3-2.07,1.01
		c-2.43,2.55-3.85,9.35-3.85,14.21c0,3.02,0.83,5.86,1.72,5.86C367.61,270.98,368.68,269.8,369.74,267.96z"/>
	<path d="M424.86,276.55c-2.84,0-5.98-2.31-6.87-5.68c-0.47-1.83-0.65-3.67-0.65-5.62c0-2.9,0.36-5.8,0.36-9c0-0.47,0-1.78-0.3-2.9
		c-0.24-0.89-0.59-1.6-1.24-1.6c-0.42,0-1.01,0.59-1.6,1.66c-1.12,1.95-2.43,5.27-3.55,8.82c-1.66,5.15-3.02,10.66-3.02,12.73v0.36
		c-0.59,0.18-1.24,0.3-1.95,0.3c-1.89,0-3.91-0.83-4.44-2.84c-0.12-0.53-0.18-1.12-0.18-1.83c0-2.07,0.41-4.91,0.53-8.35
		c0.06-1.3,0.06-2.72,0.06-4.03c0-3.61-0.24-6.69-1.48-6.69s-3.32,5.15-5.03,10.77c-1.54,5.09-2.78,10.54-2.78,12.91
		c-0.3,0.12-0.59,0.18-1.01,0.18c-2.07,0-5.39-1.66-5.57-3.91c-0.06-0.83-0.12-2.01-0.12-3.38c0-2.66,0.12-5.98,0.3-8.53
		c0.18-3.26,0.47-5.68,0.47-8.17c0-1.24-0.06-2.49-0.3-3.85c0.35-0.12,0.77-0.18,1.18-0.18c1.72,0,3.79,0.89,4.62,2.66
		c0.36,0.77,0.65,2.43,0.65,4.68c0,0.53,0,1.12-0.42,7.99c0.18-0.83,1.42-5.92,3.02-10c1.01-2.6,2.19-5.86,5.68-5.86
		c2.61,0,5.15,1.95,6.1,4.26c0.83,2.01,1.01,4.26,1.01,6.45c0,1.3-0.06,2.55-0.12,4.32c1.01-4.03,2.25-6.87,3.38-9.83
		c1.01-2.72,2.84-5.27,5.51-5.27c2.49,0,5.74,1.36,6.93,5.27c0.3,1.12,0.41,2.31,0.41,3.61c0,1.78-0.18,3.67-0.3,5.62
		c-0.06,1.18-0.3,3.73-0.3,6.04c0,2.19,0.18,4.2,1.01,4.74c0.3,0.24,0.59,0.3,0.95,0.3c0.89,0,1.78-0.71,2.6-1.72
		c1.24-1.54,2.31-3.67,2.61-4.74c0.65,0.12,1.48,0.95,1.48,2.43c0,0.41-0.06,0.83-0.18,1.3c-0.83,2.9-3.91,5.74-6.16,6.39
		C425.75,276.49,425.34,276.55,424.86,276.55z"/>
</g>
</svg>
